<svg width="172" height="32" viewBox="0 0 172 32" fill="none" xmlns="http://www.w3.org/2000/svg">
<path fill-rule="evenodd" clip-rule="evenodd" d="M0 16C0 7.16344 7.16344 0 16 0C24.8366 0 32 7.16344 32 16C32 24.8366 24.8366 32 16 32C7.16344 32 0 24.8366 0 16ZM13.93 7.58967C13.3397 7.24884 12.5848 7.45111 12.2439 8.04145L6.3736 18.2092C6.10177 18.68 6.17539 19.2555 6.51582 19.6421C6.75408 19.9345 7.11702 20.1212 7.52357 20.1212H11.6741L10.1648 22.7355C9.82393 23.3258 10.0262 24.0807 10.6165 24.4215C11.2069 24.7623 11.9618 24.5601 12.3026 23.9697L14.5246 20.1212H21.5565C22.2741 20.1212 22.8558 19.5394 22.8558 18.8218C22.8558 18.1042 22.2741 17.5225 21.5565 17.5225H16.0249L17.6138 14.7704L24.544 14.7704C25.2686 14.7704 25.856 14.183 25.856 13.4584C25.856 12.7338 25.2686 12.1464 24.544 12.1464L17.184 12.1464C17.0262 12.1464 16.8748 12.1743 16.7346 12.2254C16.3911 12.2885 16.0764 12.4962 15.8881 12.8224L13.1745 17.5225H9.6205L14.3818 9.27573C14.7226 8.68538 14.5203 7.93051 13.93 7.58967Z" fill="white"/>
<path d="M44.6 24C44.2667 24 43.98 23.8867 43.74 23.66C43.5133 23.42 43.4 23.1333 43.4 22.8V11.2C43.4 10.8667 43.5133 10.5867 43.74 10.36C43.98 10.12 44.2667 10 44.6 10C44.9333 10 45.2133 10.12 45.44 10.36C45.68 10.5867 45.8 10.8667 45.8 11.2V22.8C45.8 23.1333 45.68 23.42 45.44 23.66C45.2133 23.8867 44.9333 24 44.6 24ZM57.1953 14.08C57.5286 14.08 57.8086 14.2 58.0353 14.44C58.2753 14.6667 58.3953 14.9467 58.3953 15.28V22.8C58.3953 23.1333 58.2753 23.42 58.0353 23.66C57.8086 23.8867 57.5286 24 57.1953 24C56.8753 24 56.602 23.8933 56.3753 23.68C56.1486 23.4667 56.022 23.2067 55.9953 22.9C55.5953 23.3133 55.1286 23.6333 54.5953 23.86C54.062 24.0867 53.4953 24.2 52.8953 24.2C52.1086 24.2 51.3886 24.0133 50.7353 23.64C50.082 23.2533 49.562 22.7333 49.1753 22.08C48.7886 21.4267 48.5953 20.7133 48.5953 19.94V15.28C48.5953 14.9467 48.7086 14.6667 48.9353 14.44C49.1753 14.2 49.462 14.08 49.7953 14.08C50.1286 14.08 50.4086 14.2 50.6353 14.44C50.8753 14.6667 50.9953 14.9467 50.9953 15.28V19.34C50.9953 19.8067 51.1086 20.24 51.3353 20.64C51.562 21.04 51.862 21.36 52.2353 21.6C52.622 21.8267 53.042 21.94 53.4953 21.94C53.9486 21.94 54.362 21.8267 54.7353 21.6C55.122 21.36 55.4286 21.04 55.6553 20.64C55.882 20.24 55.9953 19.8067 55.9953 19.34V15.28C55.9953 14.9467 56.1086 14.6667 56.3353 14.44C56.5753 14.2 56.862 14.08 57.1953 14.08ZM62.593 12.88C62.2063 12.88 61.873 12.74 61.593 12.46C61.3263 12.18 61.193 11.8467 61.193 11.46C61.193 11.0733 61.3263 10.74 61.593 10.46C61.873 10.18 62.2063 10.04 62.593 10.04C62.9796 10.04 63.3063 10.18 63.573 10.46C63.853 10.74 63.993 11.0733 63.993 11.46C63.993 11.8467 63.853 12.18 63.573 12.46C63.3063 12.74 62.9796 12.88 62.593 12.88ZM62.593 24C62.2596 24 61.973 23.8867 61.733 23.66C61.5063 23.42 61.393 23.1333 61.393 22.8V15.28C61.393 14.9467 61.5063 14.6667 61.733 14.44C61.973 14.2 62.2596 14.08 62.593 14.08C62.9263 14.08 63.2063 14.2 63.433 14.44C63.673 14.6667 63.793 14.9467 63.793 15.28V22.8C63.793 23.1333 63.673 23.42 63.433 23.66C63.2063 23.8867 62.9263 24 62.593 24ZM70.7984 24.18C70.2784 24.18 69.7184 24.1133 69.1184 23.98C68.5318 23.8333 67.9718 23.6333 67.4384 23.38C67.2518 23.3 67.0984 23.1733 66.9784 23C66.8584 22.8133 66.7984 22.6133 66.7984 22.4C66.7984 22.0933 66.9051 21.8333 67.1184 21.62C67.3451 21.4067 67.6051 21.3 67.8984 21.3C68.0184 21.3 68.1584 21.3333 68.3184 21.4C69.0784 21.7333 69.8851 21.9 70.7384 21.9C71.2851 21.9 71.7251 21.8333 72.0584 21.7C72.4051 21.5667 72.5784 21.38 72.5784 21.14C72.5784 20.9 72.4251 20.72 72.1184 20.6C71.8118 20.4667 71.4051 20.36 70.8984 20.28C69.7784 20.08 68.8384 19.7467 68.0784 19.28C67.3184 18.8 66.9384 18.06 66.9384 17.06C66.9384 16.34 67.1451 15.74 67.5584 15.26C67.9851 14.78 68.5118 14.4267 69.1384 14.2C69.7784 13.9733 70.4118 13.86 71.0384 13.86C71.9984 13.86 73.0718 14.1067 74.2584 14.6C74.4451 14.68 74.5984 14.8133 74.7184 15C74.8518 15.1867 74.9184 15.3867 74.9184 15.6C74.9184 15.9067 74.8118 16.1667 74.5984 16.38C74.3851 16.5933 74.1318 16.7 73.8384 16.7C73.6784 16.7 73.5451 16.6733 73.4384 16.62C72.5451 16.2867 71.7518 16.12 71.0584 16.12C70.5784 16.12 70.2051 16.2 69.9384 16.36C69.6718 16.52 69.5384 16.7267 69.5384 16.98C69.5384 17.2467 69.6718 17.4467 69.9384 17.58C70.2051 17.7 70.5251 17.8 70.8984 17.88C71.8184 18.0667 72.5651 18.2667 73.1384 18.48C73.7251 18.6933 74.2118 19 74.5984 19.4C74.9851 19.8 75.1784 20.3333 75.1784 21C75.1784 21.7467 74.9451 22.36 74.4784 22.84C74.0118 23.3067 73.4384 23.6467 72.7584 23.86C72.0918 24.0733 71.4384 24.18 70.7984 24.18ZM85.1503 10.4C85.3636 10.48 85.537 10.62 85.6703 10.82C85.8036 11.0067 85.8703 11.22 85.8703 11.46C85.8703 11.78 85.757 12.0467 85.5303 12.26C85.317 12.4733 85.057 12.58 84.7503 12.58C84.6836 12.58 84.5703 12.5667 84.4103 12.54C83.9436 12.3933 83.5236 12.32 83.1503 12.32C82.777 12.32 82.477 12.3867 82.2503 12.52C82.0636 12.6267 81.9303 12.78 81.8503 12.98C81.7836 13.1667 81.7503 13.4133 81.7503 13.72V14.28H83.5103C83.817 14.28 84.0836 14.3933 84.3103 14.62C84.537 14.8333 84.6503 15.0933 84.6503 15.4C84.6503 15.7067 84.537 15.9733 84.3103 16.2C84.0836 16.4267 83.817 16.54 83.5103 16.54H81.7503V22.8C81.7503 23.1333 81.6303 23.42 81.3903 23.66C81.1636 23.8867 80.8836 24 80.5503 24C80.217 24 79.9303 23.8867 79.6903 23.66C79.4636 23.42 79.3503 23.1333 79.3503 22.8V16.54H78.6903C78.3836 16.54 78.117 16.4267 77.8903 16.2C77.677 15.9733 77.5703 15.7067 77.5703 15.4C77.5703 15.0933 77.677 14.8333 77.8903 14.62C78.117 14.3933 78.3836 14.28 78.6903 14.28H79.3503V13.44C79.3503 12.7867 79.477 12.22 79.7303 11.74C79.997 11.26 80.3636 10.8733 80.8303 10.58C81.4303 10.1933 82.157 10 83.0103 10C83.7036 10 84.417 10.1333 85.1503 10.4ZM95.6017 14.08C95.9351 14.08 96.2151 14.2 96.4417 14.44C96.6817 14.6667 96.8017 14.9467 96.8017 15.28V22.8C96.8017 23.1333 96.6817 23.42 96.4417 23.66C96.2151 23.8867 95.9351 24 95.6017 24C95.2684 24 94.9817 23.8867 94.7417 23.66C94.5151 23.42 94.4017 23.1333 94.4017 22.8V22.78C93.9751 23.2333 93.4817 23.5867 92.9217 23.84C92.3617 24.08 91.7751 24.2 91.1617 24.2C90.3084 24.2 89.5217 23.9733 88.8017 23.52C88.0817 23.0533 87.5084 22.4267 87.0817 21.64C86.6684 20.84 86.4617 19.9733 86.4617 19.04C86.4617 18.1067 86.6684 17.2467 87.0817 16.46C87.5084 15.66 88.0817 15.0333 88.8017 14.58C89.5217 14.1133 90.3084 13.88 91.1617 13.88C91.7751 13.88 92.3617 14.0067 92.9217 14.26C93.4817 14.5 93.9751 14.8467 94.4017 15.3V15.28C94.4017 14.9467 94.5151 14.6667 94.7417 14.44C94.9817 14.2 95.2684 14.08 95.6017 14.08ZM91.6617 21.94C92.1684 21.94 92.6351 21.8133 93.0617 21.56C93.5017 21.2933 93.8417 20.94 94.0817 20.5C94.3351 20.0467 94.4617 19.56 94.4617 19.04C94.4617 18.52 94.3351 18.04 94.0817 17.6C93.8417 17.1467 93.5017 16.7933 93.0617 16.54C92.6351 16.2733 92.1684 16.14 91.6617 16.14C91.1551 16.14 90.6817 16.2733 90.2417 16.54C89.8151 16.7933 89.4751 17.1467 89.2217 17.6C88.9817 18.04 88.8617 18.52 88.8617 19.04C88.8617 19.56 88.9817 20.0467 89.2217 20.5C89.4751 20.94 89.8151 21.2933 90.2417 21.56C90.6817 21.8133 91.1551 21.94 91.6617 21.94ZM100.811 24C100.478 24 100.191 23.8867 99.9509 23.66C99.7243 23.42 99.6109 23.1333 99.6109 22.8V11.2C99.6109 10.8667 99.7243 10.5867 99.9509 10.36C100.191 10.12 100.478 10 100.811 10C101.144 10 101.424 10.12 101.651 10.36C101.891 10.5867 102.011 10.8667 102.011 11.2V22.8C102.011 23.1333 101.891 23.42 101.651 23.66C101.424 23.8867 101.144 24 100.811 24ZM109.806 21.92C110.486 21.92 111.133 21.68 111.746 21.2C111.933 21.04 112.166 20.96 112.446 20.96C112.753 20.96 113.02 21.0733 113.246 21.3C113.473 21.5133 113.586 21.7733 113.586 22.08C113.586 22.4267 113.446 22.72 113.166 22.96C112.18 23.7733 111.06 24.18 109.806 24.18C108.86 24.18 107.986 23.9533 107.186 23.5C106.4 23.0333 105.773 22.4067 105.306 21.62C104.84 20.82 104.606 19.9533 104.606 19.02C104.606 18.0867 104.84 17.2267 105.306 16.44C105.773 15.6533 106.4 15.0333 107.186 14.58C107.986 14.1133 108.86 13.88 109.806 13.88C111.06 13.88 112.18 14.2867 113.166 15.1C113.446 15.34 113.586 15.6333 113.586 15.98C113.586 16.2867 113.473 16.5533 113.246 16.78C113.02 16.9933 112.753 17.1 112.446 17.1C112.166 17.1 111.933 17.02 111.746 16.86C111.133 16.38 110.486 16.14 109.806 16.14C109.313 16.14 108.846 16.2733 108.406 16.54C107.98 16.7933 107.64 17.14 107.386 17.58C107.133 18.02 107.006 18.5 107.006 19.02C107.006 19.54 107.133 20.0267 107.386 20.48C107.64 20.92 107.98 21.2733 108.406 21.54C108.846 21.7933 109.313 21.92 109.806 21.92ZM121.388 24.2C120.442 24.2 119.568 23.9733 118.768 23.52C117.982 23.0533 117.355 22.4267 116.888 21.64C116.422 20.84 116.188 19.9667 116.188 19.02C116.188 18.0867 116.422 17.2267 116.888 16.44C117.355 15.6533 117.982 15.0333 118.768 14.58C119.568 14.1133 120.442 13.88 121.388 13.88C122.335 13.88 123.202 14.1133 123.988 14.58C124.788 15.0333 125.422 15.6533 125.888 16.44C126.355 17.2267 126.588 18.0867 126.588 19.02C126.588 19.9667 126.355 20.84 125.888 21.64C125.422 22.4267 124.788 23.0533 123.988 23.52C123.202 23.9733 122.335 24.2 121.388 24.2ZM121.388 21.94C121.895 21.94 122.362 21.8133 122.788 21.56C123.228 21.2933 123.568 20.94 123.808 20.5C124.062 20.0467 124.188 19.56 124.188 19.04C124.188 18.52 124.062 18.04 123.808 17.6C123.568 17.1467 123.228 16.7933 122.788 16.54C122.362 16.2733 121.895 16.14 121.388 16.14C120.882 16.14 120.408 16.2733 119.968 16.54C119.542 16.7933 119.202 17.1467 118.948 17.6C118.708 18.04 118.588 18.52 118.588 19.04C118.588 19.56 118.708 20.0467 118.948 20.5C119.202 20.94 119.542 21.2933 119.968 21.56C120.408 21.8133 120.882 21.94 121.388 21.94ZM134.681 13.88C135.468 13.88 136.188 14.0733 136.841 14.46C137.495 14.8333 138.015 15.3467 138.401 16C138.788 16.6533 138.981 17.3667 138.981 18.14V22.8C138.981 23.1333 138.861 23.42 138.621 23.66C138.395 23.8867 138.115 24 137.781 24C137.448 24 137.161 23.8867 136.921 23.66C136.695 23.42 136.581 23.1333 136.581 22.8V18.74C136.581 18.2733 136.468 17.84 136.241 17.44C136.015 17.04 135.708 16.7267 135.321 16.5C134.948 16.26 134.535 16.14 134.081 16.14C133.628 16.14 133.208 16.26 132.821 16.5C132.448 16.7267 132.148 17.04 131.921 17.44C131.695 17.84 131.581 18.2733 131.581 18.74V22.8C131.581 23.1333 131.461 23.42 131.221 23.66C130.995 23.8867 130.715 24 130.381 24C130.048 24 129.761 23.8867 129.521 23.66C129.295 23.42 129.181 23.1333 129.181 22.8V15.28C129.181 14.9467 129.295 14.6667 129.521 14.44C129.761 14.2 130.048 14.08 130.381 14.08C130.701 14.08 130.975 14.1867 131.201 14.4C131.428 14.6133 131.555 14.8733 131.581 15.18C131.981 14.7667 132.448 14.4467 132.981 14.22C133.515 13.9933 134.081 13.88 134.681 13.88ZM154.579 13.88C155.406 13.88 156.152 14.0733 156.819 14.46C157.499 14.8333 158.026 15.3467 158.399 16C158.786 16.64 158.979 17.3467 158.979 18.12V22.78C158.979 23.1133 158.859 23.4 158.619 23.64C158.392 23.8667 158.112 23.98 157.779 23.98C157.446 23.98 157.159 23.8667 156.919 23.64C156.692 23.4 156.579 23.1133 156.579 22.78V18.72C156.579 18.2533 156.466 17.82 156.239 17.42C156.012 17.02 155.706 16.7067 155.319 16.48C154.946 16.2533 154.532 16.14 154.079 16.14C153.626 16.14 153.206 16.2533 152.819 16.48C152.446 16.7067 152.146 17.02 151.919 17.42C151.692 17.82 151.579 18.2533 151.579 18.72V22.8C151.579 23.1333 151.459 23.42 151.219 23.66C150.992 23.8867 150.712 24 150.379 24C150.046 24 149.759 23.8867 149.519 23.66C149.292 23.42 149.179 23.1333 149.179 22.8V18.74C149.179 18.2733 149.066 17.84 148.839 17.44C148.612 17.04 148.306 16.7267 147.919 16.5C147.546 16.26 147.132 16.14 146.679 16.14C146.226 16.14 145.806 16.26 145.419 16.5C145.046 16.7267 144.746 17.04 144.519 17.44C144.292 17.84 144.179 18.2733 144.179 18.74V22.8C144.179 23.1333 144.059 23.42 143.819 23.66C143.592 23.8867 143.312 24 142.979 24C142.646 24 142.359 23.8867 142.119 23.66C141.892 23.42 141.779 23.1333 141.779 22.8V15.28C141.779 14.9467 141.892 14.6667 142.119 14.44C142.359 14.2 142.646 14.08 142.979 14.08C143.299 14.08 143.572 14.1867 143.799 14.4C144.026 14.6133 144.152 14.8733 144.179 15.18C144.579 14.7667 145.046 14.4467 145.579 14.22C146.112 13.9933 146.679 13.88 147.279 13.88C147.972 13.88 148.619 14.0333 149.219 14.34C149.832 14.6467 150.339 15.0667 150.739 15.6C151.192 15.0667 151.752 14.6467 152.419 14.34C153.099 14.0333 153.819 13.88 154.579 13.88ZM170.339 22.16C170.526 22.3733 170.619 22.6133 170.619 22.88C170.619 23.0533 170.572 23.2267 170.479 23.4C170.399 23.5733 170.286 23.72 170.139 23.84C169.952 24.0133 169.712 24.1 169.419 24.1C169.046 24.1 168.726 23.9533 168.459 23.66L165.899 20.86L163.319 23.66C163.052 23.9533 162.732 24.1 162.359 24.1C162.092 24.1 161.852 24.0133 161.639 23.84C161.332 23.6 161.179 23.28 161.179 22.88C161.179 22.5867 161.272 22.3467 161.459 22.16L164.279 19.08L161.479 16.02C161.279 15.7933 161.179 15.5333 161.179 15.24C161.179 14.8533 161.319 14.5533 161.599 14.34C161.812 14.14 162.072 14.04 162.379 14.04C162.739 14.04 163.039 14.1733 163.279 14.44L165.899 17.3L168.499 14.44C168.766 14.1733 169.072 14.04 169.419 14.04C169.726 14.04 169.986 14.14 170.199 14.34C170.479 14.5667 170.619 14.8667 170.619 15.24C170.619 15.5467 170.512 15.8067 170.299 16.02L167.519 19.08L170.339 22.16Z" fill="white"/>
</svg>
