<svg width="39" height="38" viewBox="0 0 39 38" fill="none" xmlns="http://www.w3.org/2000/svg">
<path d="M19.3223 37.5918C29.703 37.5918 38.1182 29.1766 38.1182 18.7959C38.1182 8.41522 29.703 0 19.3223 0C8.94158 0 0.526367 8.41522 0.526367 18.7959C0.526367 29.1766 8.94158 37.5918 19.3223 37.5918Z" fill="#404152"/>
<path d="M20.4809 22.1427C20.4809 22.6577 20.3522 23.1726 20.0947 23.6876C19.8372 24.0738 19.5797 24.46 19.1935 24.7175C18.8073 24.975 18.2923 25.2325 17.7774 25.3612C17.2624 25.4899 16.7475 25.6187 16.1038 25.6187H9.53809V12.1011H16.7475C17.2624 12.1011 17.6486 12.2298 18.0349 12.3586C18.4211 12.616 18.6786 12.8735 19.0648 13.131C19.3223 13.5172 19.5797 13.7747 19.7085 14.2896C19.8372 14.6759 19.9659 15.0621 19.9659 15.577C19.9659 16.2207 19.8372 16.8644 19.451 17.3794C19.0648 18.0231 18.6786 18.4093 18.0349 18.6668C18.8073 18.9243 19.451 19.3105 19.8372 19.9542C20.2234 20.5979 20.4809 21.3703 20.4809 22.1427ZM12.1129 14.4184V17.8943H15.5888C15.975 17.8943 16.3612 17.7656 16.7475 17.3794C17.0049 17.1219 17.2624 16.6069 17.2624 16.092C17.2624 15.577 17.1337 15.1908 16.8762 14.8046C16.6187 14.5471 16.2325 14.2896 15.8463 14.2896H12.1129V14.4184ZM17.7774 21.7565C17.7774 21.499 17.7774 21.2416 17.6487 21.1128C17.5199 20.8553 17.3912 20.7266 17.2624 20.4691C17.1337 20.3404 17.0049 20.2116 16.7475 20.0829C16.6187 19.9542 16.3612 19.9542 16.1038 19.9542H12.1129V23.5589H15.975C16.2325 23.5589 16.49 23.5589 16.6187 23.4301C16.8762 23.3014 17.0049 23.1726 17.1337 23.0439C17.2624 22.9152 17.3912 22.6577 17.5199 22.5289C17.7774 22.1427 17.7774 22.014 17.7774 21.7565Z" fill="white"/>
<path d="M26.1453 25.7477C25.3729 25.7477 24.6005 25.619 24.0855 25.3615C22.7981 24.8465 21.897 23.9454 21.5107 22.658C21.2533 22.0143 21.1245 21.3706 21.1245 20.7269C21.1245 20.0832 21.2533 19.4395 21.5107 18.7958C22.0257 17.5084 22.9269 16.6072 24.0855 16.0923C24.7292 15.8348 25.3729 15.7061 26.2741 15.7061C27.0465 15.7061 27.8189 15.8348 28.3339 16.0923C30.3937 16.9934 31.2949 18.9245 31.2949 21.1131C31.2949 21.2418 31.2949 21.3706 31.2949 21.4993H23.828C23.828 21.8855 23.9568 22.2718 24.0855 22.5292C24.2143 22.7867 24.4717 23.0442 24.6005 23.3017C24.8579 23.5591 25.1154 23.6879 25.3729 23.8166C25.6304 23.9454 26.0166 23.9454 26.2741 23.9454C26.789 23.9454 27.1752 23.8166 27.6902 23.5591C28.0764 23.3017 28.4626 23.0442 28.5914 22.658L30.7799 23.3017C30.3937 24.0741 29.8788 24.5891 29.1063 25.104C28.2052 25.4902 27.1752 25.7477 26.1453 25.7477ZM28.7201 19.8257C28.7201 19.0533 28.3339 18.5383 27.9477 18.0234C27.4327 17.6371 26.9178 17.3797 26.2741 17.3797C25.8879 17.3797 25.6304 17.3797 25.3729 17.5084C25.1154 17.6371 24.8579 17.7659 24.6005 18.0234C24.343 18.2808 24.2143 18.5383 24.0855 18.7958C23.9568 19.0533 23.828 19.4395 23.828 19.8257H28.7201Z" fill="white"/>
<path d="M22.9287 12.7446H29.3657V14.4182H22.9287V12.7446Z" fill="white"/>
</svg>
