<svg width="38" height="38" viewBox="0 0 38 38" fill="none" xmlns="http://www.w3.org/2000/svg">
<path d="M19.0855 37.5918C29.4662 37.5918 37.8814 29.1766 37.8814 18.7959C37.8814 8.41522 29.4662 0 19.0855 0C8.70476 0 0.289551 8.41522 0.289551 18.7959C0.289551 29.1766 8.70476 37.5918 19.0855 37.5918Z" fill="#404152"/>
<path fill-rule="evenodd" clip-rule="evenodd" d="M19.5103 6C12.5924 6 7 11.7291 7 18.8169C7 24.4825 10.5833 29.2783 15.5542 30.9757C16.1757 31.1033 16.4034 30.6999 16.4034 30.3606C16.4034 30.0634 16.3829 29.045 16.3829 27.9838C12.9028 28.7478 12.1781 26.4559 12.1781 26.4559C11.6188 24.9705 10.7902 24.5887 10.7902 24.5887C9.65116 23.8036 10.8732 23.8036 10.8732 23.8036C12.1366 23.8885 12.7996 25.1192 12.7996 25.1192C13.9179 27.0713 15.7199 26.5197 16.4449 26.1801C16.5483 25.3525 16.8799 24.7796 17.232 24.4614C14.4564 24.1642 11.5361 23.0609 11.5361 18.1377C11.5361 16.7372 12.0329 15.5914 12.8201 14.7002C12.6959 14.382 12.2608 13.0661 12.9446 11.3049C12.9446 11.3049 14.0009 10.9653 16.3826 12.6205C17.4023 12.34 18.454 12.1973 19.5103 12.1961C20.5667 12.1961 21.6435 12.3448 22.6378 12.6205C25.0198 10.9653 26.0761 11.3049 26.0761 11.3049C26.7599 13.0661 26.3245 14.382 26.2003 14.7002C27.0083 15.5914 27.4846 16.7372 27.4846 18.1377C27.4846 23.0609 24.5643 24.1429 21.7679 24.4614C22.2237 24.8645 22.6171 25.6283 22.6171 26.8379C22.6171 28.5567 22.5966 29.9361 22.5966 30.3603C22.5966 30.6999 22.8245 31.1033 23.4457 30.9759C28.4167 29.278 31.9999 24.4825 31.9999 18.8169C32.0204 11.7291 26.4075 6 19.5103 6Z" fill="white"/>
</svg>
