<svg width="38" height="38" viewBox="0 0 38 38" fill="none" xmlns="http://www.w3.org/2000/svg">
<path d="M19.2041 37.5918C29.5848 37.5918 38 29.1766 38 18.7959C38 8.41522 29.5848 0 19.2041 0C8.82341 0 0.408203 8.41522 0.408203 18.7959C0.408203 29.1766 8.82341 37.5918 19.2041 37.5918Z" fill="#404152"/>
<path d="M19.2031 8.23926C13.4098 8.23926 8.64648 13.0026 8.64648 18.7959C8.64648 24.5891 13.4098 29.3525 19.2031 29.3525C24.9964 29.3525 29.7597 24.5891 29.7597 18.7959C29.7597 13.0026 24.9964 8.23926 19.2031 8.23926ZM26.155 13.2601C27.3137 14.805 28.0861 16.6073 28.0861 18.6671C27.6999 18.5384 26.0263 18.2809 23.9664 18.2809C23.3227 18.2809 22.6791 18.2809 21.9066 18.4097C21.9066 18.2809 21.7779 18.1522 21.7779 18.0234C21.6491 17.6372 21.3917 17.1223 21.2629 16.736C24.3527 15.4487 25.7688 13.6463 26.155 13.2601ZM19.2031 9.91287C21.5204 9.91287 23.5802 10.814 25.1251 12.1014C24.8676 12.4876 23.5802 14.1613 20.4905 15.3199C19.0744 12.7451 17.5295 10.6853 17.1433 10.1703C17.787 10.0416 18.4307 9.91287 19.2031 9.91287ZM15.3409 10.814C15.5984 11.2003 17.1433 13.3888 18.5594 15.9636C14.6972 16.9935 11.35 16.9935 10.4488 16.9935H10.3201C10.9638 14.1613 12.8949 11.9727 15.3409 10.814ZM10.1914 18.7959C10.1914 18.6671 10.1914 18.6671 10.1914 18.5384C10.1914 18.5384 10.3201 18.5384 10.4488 18.5384C11.6075 18.5384 15.4697 18.4097 19.3318 17.251C19.5893 17.766 19.8468 18.1522 19.9755 18.6671C19.8468 18.6671 19.7181 18.6671 19.7181 18.7959C15.2122 20.212 12.7661 24.0742 12.3799 24.7179C11.0925 23.173 10.1914 21.1132 10.1914 18.7959ZM19.2031 27.8076C17.1433 27.8076 15.2122 27.1639 13.7961 26.0053C14.0535 25.4903 15.8559 22.1431 20.748 20.4695C22.0353 23.688 22.5503 26.3915 22.679 27.1639C21.5204 27.5501 20.3617 27.8076 19.2031 27.8076ZM24.2239 26.134C24.0952 25.4903 23.5802 22.9155 22.5503 19.8258C23.194 19.697 23.8377 19.697 24.3527 19.697C26.2837 19.697 27.6999 20.0833 28.0861 20.212C27.5711 22.7868 26.155 24.8466 24.2239 26.134Z" fill="white"/>
</svg>
