<svg width="38" height="38" viewBox="0 0 38 38" fill="none" xmlns="http://www.w3.org/2000/svg">
<path d="M37.5918 18.7959C37.5918 8.36805 29.2238 0 18.7959 0C8.36804 0 0 8.36805 0 18.7959C0 28.1939 6.82318 36.047 15.8349 37.4631V24.203H11.0716V18.7959H15.8349V14.6763C15.8349 9.91292 18.6672 7.33813 22.9156 7.33813C24.9754 7.33813 27.164 7.72435 27.164 7.72435V12.359H24.8467C22.5294 12.359 21.7569 13.7751 21.7569 15.32V18.7959H27.0352L26.2628 24.203H21.8857V37.3344C30.7687 36.047 37.5918 28.1939 37.5918 18.7959Z" fill="#404152"/>
<path d="M26.1328 24.2027L26.9052 18.7957H21.6269V15.3197C21.6269 13.7748 22.3994 12.3587 24.7167 12.3587H27.034V7.72411C27.034 7.72411 24.8454 7.33789 22.7856 7.33789C18.5372 7.33789 15.7049 9.91267 15.7049 14.676V18.7957H11.0703V24.2027H15.8337V37.3341C16.7348 37.4629 17.7647 37.5916 18.7947 37.5916C19.8246 37.5916 20.7257 37.4629 21.7557 37.3341V24.2027H26.1328Z" fill="white"/>
</svg>
