<svg width="39" height="38" viewBox="0 0 39 38" fill="none" xmlns="http://www.w3.org/2000/svg">
<path d="M19.5591 37.5918C29.9398 37.5918 38.355 29.1766 38.355 18.7959C38.355 8.41522 29.9398 0 19.5591 0C9.1784 0 0.763184 8.41522 0.763184 18.7959C0.763184 29.1766 9.1784 37.5918 19.5591 37.5918Z" fill="#404152"/>
<path d="M29.9874 12.3589C29.3437 12.6163 28.5713 12.8738 27.9276 13.0026C28.3138 13.0026 28.7 12.3589 28.9575 12.1014C29.215 11.7152 29.4725 11.329 29.6012 10.814V10.6853H29.4725C28.7 11.0715 27.9276 11.4577 27.0264 11.5864C26.8977 11.5864 26.8977 11.5864 26.8977 11.5864C26.769 11.4577 26.769 11.4577 26.6402 11.329C26.254 11.0715 25.8678 10.814 25.4816 10.5565C24.9666 10.299 24.3229 10.1703 23.6792 10.299C23.0355 10.299 22.5206 10.5565 22.0056 10.814C21.4907 11.0715 20.9757 11.4577 20.5895 11.9726C20.2033 12.4876 19.9458 13.0026 19.817 13.6463C19.6883 14.29 19.6883 14.8049 19.817 15.4486C19.817 15.5773 19.817 15.5773 19.6883 15.5773C16.3411 15.0624 13.5088 13.9037 11.1915 11.329C11.0628 11.2002 11.0628 11.2002 10.934 11.329C9.90413 12.8738 10.4191 15.1911 11.7065 16.3498C11.8352 16.4785 12.0927 16.6073 12.2214 16.8647C12.0927 16.8647 11.3203 16.736 10.5478 16.3498C10.4191 16.3498 10.4191 16.3498 10.4191 16.4785C10.4191 16.6073 10.4191 16.736 10.4191 16.9935C10.5478 18.5383 11.7065 19.9545 13.1226 20.4694C13.2513 20.5982 13.5088 20.5982 13.6376 20.5982C13.2513 20.7269 12.9939 20.7269 12.0927 20.5982C11.964 20.5982 11.964 20.5982 11.964 20.7269C12.6076 22.658 14.1525 23.173 15.3112 23.5592C15.4399 23.5592 15.5686 23.5592 15.8261 23.5592C15.4399 24.0741 14.1525 24.5891 13.5088 24.7178C12.3502 25.104 11.1915 25.2328 10.0329 25.104C9.90413 25.104 9.77539 25.104 9.77539 25.104V25.2328C10.0329 25.3615 10.2903 25.4903 10.5478 25.619C11.3203 26.0052 12.0927 26.3914 12.8651 26.5202C17.1135 27.6788 21.7481 26.7777 24.9666 23.6879C27.4126 21.2419 28.3138 17.8947 28.3138 14.4187C28.3138 14.29 28.4426 14.1612 28.5713 14.1612C29.215 13.6463 29.73 13.1313 30.2449 12.4876C30.1162 12.6163 30.1162 12.4876 29.9874 12.3589C30.1162 12.3589 30.1162 12.3589 29.9874 12.3589C30.1162 12.3589 30.1162 12.3589 29.9874 12.3589Z" fill="white"/>
</svg>
