<svg width="39" height="38" viewBox="0 0 39 38" fill="none" xmlns="http://www.w3.org/2000/svg">
<path d="M19.4409 37.5918C29.8216 37.5918 38.2369 29.1766 38.2369 18.7959C38.2369 8.41522 29.8216 0 19.4409 0C9.06024 0 0.64502 8.41522 0.64502 18.7959C0.64502 29.1766 9.06024 37.5918 19.4409 37.5918Z" fill="#404152"/>
<path d="M11.5861 15.3196H15.1908V27.0349H11.5861V15.3196ZM13.3884 9.52637C14.5471 9.52637 15.4483 10.4275 15.4483 11.5862C15.4483 12.7448 14.5471 13.646 13.3884 13.646C12.2298 13.646 11.3286 12.7448 11.3286 11.5862C11.3286 10.4275 12.2298 9.52637 13.3884 9.52637Z" fill="white"/>
<path d="M17.5083 15.3203H20.9843V16.8652C21.4992 15.964 22.6579 14.9341 24.4602 14.9341C28.1937 14.9341 28.8374 17.3801 28.8374 20.4699V26.9068H25.2327V21.2423C25.2327 19.8262 25.2327 18.1526 23.3016 18.1526C21.3705 18.1526 21.113 19.5687 21.113 21.1136V27.0356H17.5083V15.3203Z" fill="white"/>
</svg>
