<svg width="39" height="38" viewBox="0 0 39 38" fill="none" xmlns="http://www.w3.org/2000/svg">
<path d="M19.6777 37.5918C30.0584 37.5918 38.4737 29.1766 38.4737 18.7959C38.4737 8.41522 30.0584 0 19.6777 0C9.29705 0 0.881836 8.41522 0.881836 18.7959C0.881836 29.1766 9.29705 37.5918 19.6777 37.5918Z" fill="#404152"/>
<path d="M26.1134 11.0718C25.341 11.0718 24.6973 11.7155 24.6973 12.4879C24.6973 13.2603 25.341 13.904 26.1134 13.904C26.8858 13.904 27.5295 13.2603 27.5295 12.4879C27.5295 11.7155 26.8858 11.0718 26.1134 11.0718Z" fill="white"/>
<path d="M19.8068 12.874C16.4596 12.874 13.8848 15.5775 13.8848 18.796C13.8848 22.1432 16.5883 24.718 19.8068 24.718C23.154 24.718 25.7288 22.0145 25.7288 18.796C25.7288 15.5775 23.154 12.874 19.8068 12.874ZM19.8068 22.6582C17.7469 22.6582 15.9446 20.9846 15.9446 18.796C15.9446 16.6075 17.6182 14.9339 19.8068 14.9339C21.8666 14.9339 23.6689 16.6075 23.6689 18.796C23.6689 20.9846 21.8666 22.6582 19.8068 22.6582Z" fill="white"/>
<path d="M24.5699 30.8975H14.9145C10.9236 30.8975 7.70508 27.679 7.70508 23.6881V14.0326C7.70508 10.0417 10.9236 6.82324 14.9145 6.82324H24.5699C28.5608 6.82324 31.7793 10.0417 31.7793 14.0326V23.6881C31.7793 27.679 28.5608 30.8975 24.5699 30.8975ZM14.9145 9.01181C12.2109 9.01181 9.89365 11.2004 9.89365 14.0326V23.6881C9.89365 26.3916 12.0822 28.7089 14.9145 28.7089H24.5699C27.2734 28.7089 29.5907 26.5203 29.5907 23.6881V14.0326C29.5907 11.3291 27.4022 9.01181 24.5699 9.01181H14.9145Z" fill="white"/>
</svg>
