<?xml version="1.0" standalone="no"?>
<!DOCTYPE svg PUBLIC "-//W3C//DTD SVG 20010904//EN"
 "http://www.w3.org/TR/2001/REC-SVG-20010904/DTD/svg10.dtd">
<svg version="1.0" xmlns="http://www.w3.org/2000/svg"
 width="500.000000pt" height="500.000000pt" viewBox="0 0 500.000000 500.000000"
 preserveAspectRatio="xMidYMid meet">
<metadata>
Created by potrace 1.14, written by Peter Selinger 2001-2017
</metadata>
<g transform="translate(0.000000,500.000000) scale(0.100000,-0.100000)"
fill="#000000" stroke="none">
<path d="M2320 4994 c-19 -2 -78 -9 -130 -15 -467 -53 -946 -265 -1315 -581
-471 -404 -769 -957 -856 -1588 -17 -122 -18 -497 -1 -615 58 -412 185 -751
407 -1085 397 -598 1032 -990 1765 -1091 122 -17 497 -18 615 -1 412 58 751
185 1085 407 598 397 990 1032 1091 1765 17 122 18 497 1 615 -58 412 -185
751 -407 1085 -391 588 -1016 981 -1730 1086 -96 14 -453 27 -525 18z m-147
-1179 c86 -40 123 -165 77 -256 -13 -24 -182 -320 -377 -657 -194 -337 -356
-619 -359 -627 -5 -13 30 -15 268 -15 l275 0 218 378 c119 207 224 385 234
396 9 10 34 28 56 40 40 21 47 21 680 24 l641 3 44 -24 c117 -61 145 -214 57
-313 -63 -72 -29 -68 -665 -74 l-573 -5 -119 -205 c-66 -113 -120 -208 -120
-212 0 -5 204 -8 453 -8 450 0 453 0 497 -22 132 -67 146 -247 27 -342 l-39
-31 -589 -5 -590 -5 -182 -314 c-207 -357 -219 -372 -315 -379 -45 -3 -68 1
-99 16 -78 40 -121 122 -108 202 4 22 61 132 131 254 68 119 124 218 124 221
0 3 -157 5 -348 5 -341 0 -349 0 -392 22 -97 50 -134 159 -87 260 53 113 939
1634 965 1655 55 46 142 53 215 18z"/>
</g>
</svg>
